<svg xmlns="http://www.w3.org/2000/svg" width="800" height="135" viewBox="10 55 990 90">
<g>
<path d="M 291.50 139.98 C283.71,142.88 267.40,143.63 258.08,141.51 C250.69,139.84 243.01,136.87 243.00,135.70 C243.00,134.64 248.07,116.60 248.50,116.17 C248.68,115.99 252.04,117.00 255.97,118.42 C272.52,124.39 287.00,119.58 287.00,108.11 C287.00,104.26 285.74,103.53 283.46,106.05 C278.80,111.19 263.94,112.28 254.62,108.16 C248.09,105.27 240.65,97.30 237.91,90.26 C234.75,82.14 234.74,67.89 237.89,59.80 C240.53,53.01 247.67,44.72 253.39,41.80 C261.56,37.63 276.21,38.57 282.08,43.64 C284.48,45.71 286.00,45.27 286.00,42.50 L 286.00 40.00 L 313.00 40.00 L 312.99 70.25 C312.98,103.68 312.21,113.70 308.95,122.40 C305.96,130.39 299.35,137.05 291.50,139.98 ZM 51.00 91.97 L 51.00 112.00 L 25.00 112.00 L 25.00 40.00 L 51.00 40.00 L 51.00 48.39 L 54.25 45.25 C58.77,40.87 63.87,39.00 71.22,39.01 C78.26,39.02 86.65,42.24 89.23,45.92 L 90.72 48.05 L 95.91 44.56 C102.25,40.30 106.60,39.01 114.73,39.01 C125.66,39.00 133.33,43.40 137.38,52.00 C139.35,56.19 139.52,58.43 139.82,84.25 L 140.14 112.00 L 114.00 112.00 L 113.99 92.25 C113.99,81.39 113.52,70.83 112.96,68.78 C111.01,61.77 105.20,60.07 99.77,64.92 L 96.50 67.83 L 96.20 89.92 L 95.89 112.00 L 70.20 112.00 L 69.82 90.75 C69.51,73.03 69.16,68.97 67.72,66.29 C65.52,62.21 60.31,60.91 56.41,63.47 C51.68,66.57 51.00,70.14 51.00,91.97 ZM 565.13 112.98 C554.05,116.06 541.99,112.23 533.68,102.99 C523.14,91.27 520.96,70.13 528.80,55.65 C532.20,49.36 539.78,42.60 545.68,40.59 C554.83,37.48 564.30,38.78 572.25,44.25 L 575.00 46.14 L 575.00 4.00 L 602.00 4.00 L 602.00 112.00 L 577.00 112.00 L 577.00 109.50 C577.00,106.42 576.94,106.42 572.43,109.49 C570.41,110.85 567.13,112.43 565.13,112.98 ZM 478.50 112.90 C465.63,116.41 452.14,110.95 444.16,99.01 C439.10,91.43 437.62,84.96 438.19,72.90 C438.55,65.22 439.15,62.42 441.45,57.61 C446.84,46.38 455.68,40.05 467.11,39.23 C474.41,38.70 479.02,39.85 484.45,43.53 L 488.00 45.94 L 488.00 40.00 L 515.00 40.00 L 515.00 112.00 L 490.00 112.00 L 490.00 109.50 C490.00,106.41 489.66,106.40 485.68,109.40 C483.93,110.72 480.70,112.30 478.50,112.90 ZM 191.23 112.35 C184.14,115.09 174.83,114.11 166.45,109.74 C162.52,107.69 155.69,100.28 153.19,95.35 C147.59,84.28 147.75,67.45 153.57,55.89 C156.57,49.93 164.75,42.61 170.68,40.59 C179.40,37.62 190.35,38.90 195.86,43.54 C199.61,46.69 200.00,46.64 200.00,43.00 L 200.00 40.00 L 226.00 40.00 L 226.00 112.00 L 201.00 112.00 L 201.00 109.50 C201.00,106.52 200.31,106.39 197.56,108.85 C196.43,109.86 193.58,111.44 191.23,112.35 ZM 727.00 110.57 C721.81,113.23 708.00,113.59 701.40,111.23 C680.81,103.88 672.20,78.49 683.24,57.71 C688.79,47.28 698.58,41.01 710.58,40.22 C720.22,39.59 727.81,41.86 733.44,47.05 C735.80,49.22 738.01,51.00 738.36,51.00 C738.71,51.00 739.00,40.42 739.00,27.50 L 739.00 4.00 L 751.00 4.00 L 751.00 112.00 L 739.00 112.00 L 739.00 100.58 L 734.75 104.68 C732.41,106.94 728.92,109.59 727.00,110.57 ZM 822.16 109.71 C817.45,112.01 815.06,112.49 807.03,112.71 C793.19,113.10 786.34,110.43 778.03,101.42 C763.19,85.31 766.11,57.41 783.83,46.14 C793.29,40.12 807.57,38.42 819.18,41.94 C828.79,44.85 837.54,54.17 840.62,64.78 C842.81,72.31 842.14,85.77 839.25,92.22 C836.32,98.77 828.80,106.46 822.16,109.71 ZM 410.04 112.99 C393.09,116.21 377.70,110.60 368.87,97.98 C358.47,83.13 360.40,61.39 373.16,49.45 C380.37,42.71 387.51,39.85 398.72,39.24 C409.72,38.63 418.59,40.98 426.20,46.53 C434.29,52.41 434.24,52.86 424.60,60.98 L 416.18 68.06 L 412.58 65.62 C401.87,58.35 389.00,63.86 389.00,75.70 C389.00,83.14 392.94,88.52 399.48,89.99 C403.80,90.97 409.66,89.59 412.56,86.90 C413.70,85.86 414.96,85.00 415.37,85.00 C416.44,85.00 433.00,98.95 433.00,99.85 C433.00,100.27 431.54,102.02 429.75,103.75 C425.76,107.60 417.15,111.64 410.04,112.99 ZM 654.55 111.08 C648.17,113.90 634.69,114.63 627.50,112.54 C624.75,111.74 622.23,111.07 621.91,111.04 C621.58,111.02 618.52,109.20 615.11,107.00 L 608.92 102.99 L 615.00 95.00 C618.35,90.60 621.30,87.00 621.55,87.00 C621.81,87.00 623.79,88.29 625.96,89.86 C633.64,95.42 644.50,96.55 643.81,91.71 C643.56,89.93 641.99,88.99 635.64,86.83 C625.99,83.54 619.67,79.70 615.60,74.66 C612.69,71.05 612.50,70.30 612.50,62.49 C612.50,54.85 612.75,53.82 615.53,49.84 C617.39,47.19 620.70,44.33 624.03,42.50 C629.19,39.67 630.13,39.50 640.50,39.53 C650.44,39.56 652.16,39.85 658.40,42.53 C662.19,44.16 665.74,46.21 666.29,47.08 C667.05,48.30 665.97,50.53 661.59,56.78 L 655.91 64.90 L 651.28 61.96 C644.31,57.54 636.00,56.77 636.00,60.53 C636.00,62.28 637.66,63.17 647.97,66.93 C664.72,73.04 669.02,77.68 668.98,89.57 C668.94,99.83 664.28,106.78 654.55,111.08 ZM 796.52 100.40 C808.30,104.71 821.40,99.70 827.27,88.64 C830.55,82.45 830.42,70.31 827.00,63.61 C822.59,54.97 813.56,50.31 803.07,51.26 C789.56,52.48 780.98,62.45 781.01,76.90 C781.03,87.00 787.76,97.19 796.52,100.40 ZM 705.50 100.12 C708.51,101.58 711.14,101.99 716.12,101.76 C724.64,101.36 731.11,97.61 735.47,90.55 C738.26,86.03 738.50,84.94 738.48,76.57 C738.47,69.18 738.06,66.73 736.28,63.38 C731.94,55.20 723.08,50.41 713.72,51.19 C699.81,52.34 691.00,62.37 691.00,77.07 C691.00,87.22 696.31,95.67 705.50,100.12 ZM 352.00 40.00 L 352.00 112.00 L 325.00 112.00 L 325.00 40.00 ZM 968.12 111.98 C964.00,113.13 951.98,113.16 947.50,112.05 C942.69,110.85 936.86,108.13 933.34,105.45 L 930.08 102.96 L 932.78 98.48 C934.27,96.02 935.76,94.00 936.09,94.00 C936.42,94.00 938.00,95.13 939.59,96.50 C945.81,101.85 959.39,104.02 965.73,100.67 C969.97,98.44 972.32,93.98 971.04,90.61 C969.78,87.30 967.00,85.59 956.91,81.92 C941.29,76.24 934.69,70.77 933.44,62.44 C932.01,52.89 937.32,44.72 947.05,41.48 C954.24,39.10 965.57,39.85 973.00,43.20 C981.13,46.86 981.85,48.12 978.61,53.01 C977.16,55.20 975.52,57.00 974.96,57.00 C974.41,57.00 972.17,55.81 969.98,54.37 C966.94,52.36 964.40,51.63 959.25,51.32 C951.55,50.84 948.19,52.11 946.21,56.25 C945.12,58.52 945.17,59.43 946.53,62.06 C948.19,65.26 949.30,65.87 969.29,74.50 C978.62,78.53 981.31,80.96 983.13,87.04 C986.27,97.51 979.45,108.84 968.12,111.98 ZM 908.50 109.65 C903.49,111.96 900.92,112.46 893.00,112.67 C881.82,112.96 876.49,111.48 869.31,106.06 C864.17,102.18 858.68,94.04 856.79,87.50 C854.89,80.94 855.46,68.33 857.94,61.80 C864.47,44.63 884.35,35.96 903.74,41.85 C910.25,43.83 920.00,49.93 920.00,52.03 C920.00,52.55 918.34,54.49 916.32,56.34 L 912.64 59.71 L 908.28 56.39 C902.83,52.23 897.11,50.63 889.93,51.28 C876.48,52.48 868.15,61.94 868.04,76.12 C867.96,86.99 872.87,95.64 881.38,99.60 C890.08,103.65 900.76,102.47 908.44,96.62 C912.87,93.24 913.95,93.32 917.81,97.30 L 921.01 100.60 L 917.75 103.75 C915.96,105.48 911.80,108.13 908.50,109.65 ZM 346.94 30.09 C340.51,34.59 330.04,32.40 325.95,25.69 C322.16,19.48 323.95,10.27 329.70,6.42 C333.53,3.85 344.40,3.79 348.16,6.33 C356.13,11.68 355.49,24.09 346.94,30.09 ZM 558.08 89.25 C562.24,91.37 564.04,91.43 568.51,89.56 C573.89,87.31 576.18,82.77 575.76,75.22 C575.45,69.80 574.98,68.52 572.36,65.90 C568.52,62.06 562.72,61.06 558.12,63.44 C548.67,68.33 548.65,84.42 558.08,89.25 ZM 183.08 89.30 C189.41,92.63 196.50,89.61 199.63,82.28 C204.82,70.09 193.90,57.86 182.91,63.55 C173.65,68.33 173.77,84.39 183.08,89.30 ZM 472.33 89.58 C480.76,93.35 489.38,86.48 489.36,76.00 C489.34,63.65 477.01,57.53 468.77,65.76 C461.98,72.56 463.96,85.84 472.33,89.58 ZM 270.50 86.59 C274.36,88.30 275.34,88.30 279.51,86.56 C288.95,82.62 289.51,67.84 280.39,63.52 C276.40,61.62 273.88,61.61 269.49,63.44 C259.35,67.68 259.97,81.91 270.50,86.59 Z" fill="rgb(0,0,0)"/>
<path d="M 0.00 75.00 L 0.00 0.00 L 500.00 0.00 L 1000.00 0.00 L 1000.00 75.00 L 1000.00 150.00 L 500.00 150.00 L 0.00 150.00 L 0.00 75.00 ZM 291.50 139.98 C299.35,137.05 305.96,130.39 308.95,122.40 C312.21,113.70 312.98,103.68 312.99,70.25 L 313.00 40.00 L 299.50 40.00 L 286.00 40.00 L 286.00 42.50 C286.00,45.27 284.48,45.71 282.08,43.64 C276.21,38.57 261.56,37.63 253.39,41.80 C247.67,44.72 240.53,53.01 237.89,59.80 C234.74,67.89 234.75,82.14 237.91,90.26 C240.65,97.30 248.09,105.27 254.62,108.16 C263.94,112.28 278.80,111.19 283.46,106.05 C285.74,103.53 287.00,104.26 287.00,108.11 C287.00,119.58 272.52,124.39 255.97,118.42 C252.04,117.00 248.68,115.99 248.50,116.17 C248.07,116.60 243.00,134.64 243.00,135.70 C243.01,136.87 250.69,139.84 258.08,141.51 C267.40,143.63 283.71,142.88 291.50,139.98 ZM 191.23 112.35 C193.58,111.44 196.43,109.86 197.56,108.85 C200.31,106.39 201.00,106.52 201.00,109.50 L 201.00 112.00 L 213.50 112.00 L 226.00 112.00 L 226.00 76.00 L 226.00 40.00 L 213.00 40.00 L 200.00 40.00 L 200.00 43.00 C200.00,46.64 199.61,46.69 195.86,43.54 C190.35,38.90 179.40,37.62 170.68,40.59 C164.75,42.61 156.57,49.93 153.57,55.89 C147.75,67.45 147.59,84.28 153.19,95.35 C155.69,100.28 162.52,107.69 166.45,109.74 C174.83,114.11 184.14,115.09 191.23,112.35 ZM 410.04 112.99 C417.15,111.64 425.76,107.60 429.75,103.75 C431.54,102.02 433.00,100.27 433.00,99.85 C433.00,98.95 416.44,85.00 415.37,85.00 C414.96,85.00 413.70,85.86 412.56,86.90 C409.66,89.59 403.80,90.97 399.48,89.99 C392.94,88.52 389.00,83.14 389.00,75.70 C389.00,63.86 401.87,58.35 412.58,65.62 L 416.18 68.06 L 424.60 60.98 C434.24,52.86 434.29,52.41 426.20,46.53 C418.59,40.98 409.72,38.63 398.72,39.24 C387.51,39.85 380.37,42.71 373.16,49.45 C360.40,61.39 358.47,83.13 368.87,97.98 C377.70,110.60 393.09,116.21 410.04,112.99 ZM 478.50 112.90 C480.70,112.30 483.93,110.72 485.68,109.40 C489.66,106.40 490.00,106.41 490.00,109.50 L 490.00 112.00 L 502.50 112.00 L 515.00 112.00 L 515.00 76.00 L 515.00 40.00 L 501.50 40.00 L 488.00 40.00 L 488.00 42.97 L 488.00 45.94 L 484.45 43.53 C479.02,39.85 474.41,38.70 467.11,39.23 C455.68,40.05 446.84,46.38 441.45,57.61 C439.15,62.42 438.55,65.22 438.19,72.90 C437.62,84.96 439.10,91.43 444.16,99.01 C452.14,110.95 465.63,116.41 478.50,112.90 ZM 565.13 112.98 C567.13,112.43 570.41,110.85 572.43,109.49 C576.94,106.42 577.00,106.42 577.00,109.50 L 577.00 112.00 L 589.50 112.00 L 602.00 112.00 L 602.00 58.00 L 602.00 4.00 L 588.50 4.00 L 575.00 4.00 L 575.00 25.07 L 575.00 46.14 L 572.25 44.25 C564.30,38.78 554.83,37.48 545.68,40.59 C539.78,42.60 532.20,49.36 528.80,55.65 C520.96,70.13 523.14,91.27 533.68,102.99 C541.99,112.23 554.05,116.06 565.13,112.98 ZM 654.55 111.08 C664.28,106.78 668.94,99.83 668.98,89.57 C669.02,77.68 664.72,73.04 647.97,66.93 C637.66,63.17 636.00,62.28 636.00,60.53 C636.00,56.77 644.31,57.54 651.28,61.96 L 655.91 64.90 L 661.59 56.78 C665.97,50.53 667.05,48.30 666.29,47.08 C665.74,46.21 662.19,44.16 658.40,42.53 C652.16,39.85 650.44,39.56 640.50,39.53 C630.13,39.50 629.19,39.67 624.03,42.50 C620.70,44.33 617.39,47.19 615.53,49.84 C612.75,53.82 612.50,54.85 612.50,62.49 C612.50,70.30 612.69,71.05 615.60,74.66 C619.67,79.70 625.99,83.54 635.64,86.83 C641.99,88.99 643.56,89.93 643.81,91.71 C644.50,96.55 633.64,95.42 625.96,89.86 C623.79,88.29 621.81,87.00 621.55,87.00 C621.30,87.00 618.35,90.60 615.00,95.00 L 608.92 102.99 L 615.11 107.00 C618.52,109.20 621.58,111.02 621.91,111.04 C622.23,111.07 624.75,111.74 627.50,112.54 C634.69,114.63 648.17,113.90 654.55,111.08 ZM 727.00 110.57 C728.92,109.59 732.41,106.94 734.75,104.68 L 739.00 100.58 L 739.00 106.29 L 739.00 112.00 L 745.00 112.00 L 751.00 112.00 L 751.00 58.00 L 751.00 4.00 L 745.00 4.00 L 739.00 4.00 L 739.00 27.50 C739.00,40.42 738.71,51.00 738.36,51.00 C738.01,51.00 735.80,49.22 733.44,47.05 C727.81,41.86 720.22,39.59 710.58,40.22 C698.58,41.01 688.79,47.28 683.24,57.71 C672.20,78.49 680.81,103.88 701.40,111.23 C708.00,113.59 721.81,113.23 727.00,110.57 ZM 822.16 109.71 C828.80,106.46 836.32,98.77 839.25,92.22 C842.14,85.77 842.81,72.31 840.62,64.78 C837.54,54.17 828.79,44.85 819.18,41.94 C807.57,38.42 793.29,40.12 783.83,46.14 C766.11,57.41 763.19,85.31 778.03,101.42 C786.34,110.43 793.19,113.10 807.03,112.71 C815.06,112.49 817.45,112.01 822.16,109.71 ZM 908.50 109.65 C911.80,108.13 915.96,105.48 917.75,103.75 L 921.01 100.60 L 917.81 97.30 C913.95,93.32 912.87,93.24 908.44,96.62 C900.76,102.47 890.08,103.65 881.38,99.60 C872.87,95.64 867.96,86.99 868.04,76.12 C868.15,61.94 876.48,52.48 889.93,51.28 C897.11,50.63 902.83,52.23 908.28,56.39 L 912.64 59.71 L 916.32 56.34 C918.34,54.49 920.00,52.55 920.00,52.03 C920.00,49.93 910.25,43.83 903.74,41.85 C884.35,35.96 864.47,44.63 857.94,61.80 C855.46,68.33 854.89,80.94 856.79,87.50 C858.68,94.04 864.17,102.18 869.31,106.06 C876.49,111.48 881.82,112.96 893.00,112.67 C900.92,112.46 903.49,111.96 908.50,109.65 ZM 968.12 111.98 C979.45,108.84 986.27,97.51 983.13,87.04 C981.31,80.96 978.62,78.53 969.29,74.50 C949.30,65.87 948.19,65.26 946.53,62.06 C945.17,59.43 945.12,58.52 946.21,56.25 C948.19,52.11 951.55,50.84 959.25,51.32 C964.40,51.63 966.94,52.36 969.98,54.37 C972.17,55.81 974.41,57.00 974.96,57.00 C975.52,57.00 977.16,55.20 978.61,53.01 C981.85,48.12 981.13,46.86 973.00,43.20 C965.57,39.85 954.24,39.10 947.05,41.48 C937.32,44.72 932.01,52.89 933.44,62.44 C934.69,70.77 941.29,76.24 956.91,81.92 C967.00,85.59 969.78,87.30 971.04,90.61 C972.32,93.98 969.97,98.44 965.73,100.67 C959.39,104.02 945.81,101.85 939.59,96.50 C938.00,95.13 936.42,94.00 936.09,94.00 C935.76,94.00 934.27,96.02 932.78,98.48 L 930.08 102.96 L 933.34 105.45 C936.86,108.13 942.69,110.85 947.50,112.05 C951.98,113.16 964.00,113.13 968.12,111.98 ZM 51.00 91.97 C51.00,70.14 51.68,66.57 56.41,63.47 C60.31,60.91 65.52,62.21 67.72,66.29 C69.16,68.97 69.51,73.03 69.82,90.75 L 70.20 112.00 L 83.05 112.00 L 95.89 112.00 L 96.20 89.92 L 96.50 67.83 L 99.77 64.92 C105.20,60.07 111.01,61.77 112.96,68.78 C113.52,70.83 113.99,81.39 113.99,92.25 L 114.00 112.00 L 127.07 112.00 L 140.14 112.00 L 139.82 84.25 C139.52,58.43 139.35,56.19 137.38,52.00 C133.33,43.40 125.66,39.00 114.73,39.01 C106.60,39.01 102.25,40.30 95.91,44.56 L 90.72 48.05 L 89.23 45.92 C86.65,42.24 78.26,39.02 71.22,39.01 C63.87,39.00 58.77,40.87 54.25,45.25 L 51.00 48.39 L 51.00 44.20 L 51.00 40.00 L 38.00 40.00 L 25.00 40.00 L 25.00 76.00 L 25.00 112.00 L 38.00 112.00 L 51.00 112.00 L 51.00 91.97 ZM 352.00 76.00 L 352.00 40.00 L 338.50 40.00 L 325.00 40.00 L 325.00 76.00 L 325.00 112.00 L 338.50 112.00 L 352.00 112.00 L 352.00 76.00 ZM 346.94 30.09 C355.49,24.09 356.13,11.68 348.16,6.33 C344.40,3.79 333.53,3.85 329.70,6.42 C323.95,10.27 322.16,19.48 325.95,25.69 C330.04,32.40 340.51,34.59 346.94,30.09 ZM 270.50 86.59 C259.97,81.91 259.35,67.68 269.49,63.44 C273.88,61.61 276.40,61.62 280.39,63.52 C289.51,67.84 288.95,82.62 279.51,86.56 C275.34,88.30 274.36,88.30 270.50,86.59 ZM 183.08 89.30 C173.77,84.39 173.65,68.33 182.91,63.55 C193.90,57.86 204.82,70.09 199.63,82.28 C196.50,89.61 189.41,92.63 183.08,89.30 ZM 472.33 89.58 C463.96,85.84 461.98,72.56 468.77,65.76 C477.01,57.53 489.34,63.65 489.36,76.00 C489.38,86.48 480.76,93.35 472.33,89.58 ZM 558.08 89.25 C548.65,84.42 548.67,68.33 558.12,63.44 C562.72,61.06 568.52,62.06 572.36,65.90 C574.98,68.52 575.45,69.80 575.76,75.22 C576.18,82.77 573.89,87.31 568.51,89.56 C564.04,91.43 562.24,91.37 558.08,89.25 ZM 705.50 100.12 C696.31,95.67 691.00,87.22 691.00,77.07 C691.00,62.37 699.81,52.34 713.72,51.19 C723.08,50.41 731.94,55.20 736.28,63.38 C738.06,66.73 738.47,69.18 738.48,76.57 C738.50,84.94 738.26,86.03 735.47,90.55 C731.11,97.61 724.64,101.36 716.12,101.76 C711.14,101.99 708.51,101.58 705.50,100.12 ZM 796.52 100.40 C787.76,97.19 781.03,87.00 781.01,76.90 C780.98,62.45 789.56,52.48 803.07,51.26 C813.56,50.31 822.59,54.97 827.00,63.61 C830.42,70.31 830.55,82.45 827.27,88.64 C821.40,99.70 808.30,104.71 796.52,100.40 Z" fill="rgb(254,254,254)"/>
</g>
</svg>